Coordinates
version=1
nRows=8
nColumns=46
inDegrees=yes

Units are S.I. units (second, meters, Newtons, ...)
Angles are in degrees.

endheader
time	pelvis_tilt	pelvis_list	pelvis_rotation	pelvis_tx	pelvis_ty	pelvis_tz	bb_angle	bb_tx	bb_ty	bb_tz	hip_flexion_r	hip_adduction_r	hip_rotation_r	knee_angle_r	knee_angle_r_beta	ankle_angle_r	subtalar_angle_r	mtp_angle_r	crank_angle_r	hip_flexion_l	hip_adduction_l	hip_rotation_l	knee_angle_l	knee_angle_l_beta	ankle_angle_l	subtalar_angle_l	mtp_angle_l	crank_angle_l	lumbar_extension	lumbar_bending	lumbar_rotation	arm_flex_r	arm_add_r	arm_rot_r	elbow_flex_r	pro_sup_r	wrist_flex_r	wrist_dev_r	arm_flex_l	arm_add_l	arm_rot_l	elbow_flex_l	pro_sup_l	wrist_flex_l	wrist_dev_l
      5.00500000	     -4.88982188	     -2.67228296	     -3.92689329	      0.13032296	      1.14656365	     -0.26849122	      0.00000000	      0.50000000	      0.00000000	      0.25000000	     66.92052362	     -2.18971522	      0.87498321	    110.17236948	      1.92287059	      4.81609486	     -9.27884839	      0.00000000	      0.00000000	     39.27251391	    -11.38806820	     -5.45054536	     39.46205281	      0.68874275	     -1.93727895	      6.93542538	      0.00000000	      0.00000000	    -65.02611126	      1.72746416	     -0.22832514	     84.85481803	     -5.15368440	     35.96304352	     40.96857354	     43.12462442	      0.00000000	      0.00000000	     85.02866691	    -25.46650844	     47.30435330	     43.72898876	     47.29427499	      0.00000000	      0.00000000
      5.01000000	     -4.85940798	     -3.11046332	     -4.33032604	      0.13065810	      1.14838474	     -0.26921583	      0.00000000	      0.50000000	      0.00000000	      0.25000000	     68.07794132	     -1.57240321	      0.75512093	    110.90017095	      1.93557312	      4.56716510	     -9.48011963	      0.00000000	      0.00000000	     37.71806500	    -12.15618790	     -6.66277087	     37.85195984	      0.66064133	     -3.08989049	      7.97671665	      0.00000000	      0.00000000	    -65.19723180	      1.93226259	      0.35485447	     84.96171676	     -5.01435229	     35.85090237	     41.04863158	     43.11868790	      0.00000000	      0.00000000	     85.15753978	    -25.48476330	     47.72769470	     43.28236203	     47.29313417	      0.00000000	      0.00000000
      5.01500000	     -4.80024138	     -3.47205360	     -4.83194094	      0.13112571	      1.15038131	     -0.26981376	      0.00000000	      0.50000000	      0.00000000	      0.25000000	     69.21344567	     -0.93172153	      0.78445901	    111.52342856	      1.94645102	      4.46395936	     -9.35777172	      0.00000000	      0.00000000	     36.10102791	    -12.88875143	     -8.05136266	     36.32798629	      0.63404297	     -4.09263909	      9.07099538	      0.00000000	      0.00000000	    -65.43734298	      1.99670437	      1.00795210	     85.03789021	     -5.00373138	     35.59268688	     41.28695820	     43.11958473	      0.00000000	      0.00000000	     85.39149265	    -25.34157664	     48.55211271	     42.64586000	     47.31761602	      0.00000000	      0.00000000
      5.02000000	     -4.70363346	     -3.86468510	     -5.05773792	      0.13116699	      1.15237847	     -0.27062926	      0.00000000	      0.50000000	      0.00000000	      0.25000000	     70.29691499	     -0.49973108	      0.64611291	    112.05438936	      1.95571804	      4.27348230	     -9.30799504	      0.00000000	      0.00000000	     34.62719488	    -13.44513082	     -9.12308152	     34.95452977	      0.61007163	     -5.21657392	     10.00833904	      0.00000000	      0.00000000	    -65.70822665	      2.19999216	      1.91443550	     84.81557347	     -5.41772954	     34.57476736	     42.12411022	     43.11908342	      0.00000000	      0.00000000	     86.41252690	    -24.71841859	     51.19792722	     40.78135886	     47.41540506	      0.00000000	      0.00000000
      5.02500000	     -4.83195331	     -4.15117830	     -5.33647674	      0.13144433	      1.15391489	     -0.27186548	      0.00000000	      0.50000000	      0.00000000	      0.25000000	     71.66015581	     -0.18439338	      0.56665871	    112.49966578	      1.96348958	      3.87558605	     -9.36066148	      0.00000000	      0.00000000	     33.43821030	    -13.86741947	    -10.19453054	     33.76423052	      0.58929699	     -6.24751078	     10.64744291	      0.00000000	      0.00000000	    -65.77115920	      2.49006850	      2.32061330	     84.82399456	     -5.31393224	     34.51704065	     42.30731649	     43.14080698	      0.00000000	      0.00000000	     86.38977954	    -24.78089946	     51.40959414	     40.55978311	     47.41710747	      0.00000000	      0.00000000
      5.03000000	     -4.75032033	     -4.41365616	     -5.66033012	      0.13145558	      1.15579591	     -0.27262764	      0.00000000	      0.50000000	      0.00000000	      0.25000000	     72.77624747	      0.21475752	      0.54292192	    112.80915002	      1.96889109	      3.40468079	     -9.27740344	      0.00000000	      0.00000000	     32.06214415	    -14.30865140	    -11.33226286	     32.69810891	      0.57068966	     -7.10686857	     11.41447882	      0.00000000	      0.00000000	    -66.10453595	      2.64387948	      2.78567271	     84.89863610	     -5.26243988	     34.27865256	     42.60210824	     43.15743001	      0.00000000	      0.00000000	     86.56919076	    -24.79998363	     51.78916278	     40.23456061	     47.42368479	      0.00000000	      0.00000000
      5.03500000	     -4.86445922	     -4.73222743	     -5.80800476	      0.13124836	      1.15721715	     -0.27374851	      0.00000000	      0.50000000	      0.00000000	      0.25000000	     74.07962068	      0.42275055	      0.36549196	    113.01047253	      1.97240483	      2.89942319	     -9.10108011	      0.00000000	      0.00000000	     31.10333801	    -14.64367332	    -11.95862088	     31.88102882	      0.55642892	     -7.92803891	     11.79858835	      0.00000000	      0.00000000	    -66.23958171	      3.04371796	      3.21729802	     85.04250510	     -5.10803816	     34.21775466	     42.75688473	     43.17249804	      0.00000000	      0.00000000	     86.60388414	    -24.90898144	     51.88802923	     40.07778381	     47.41454018	      0.00000000	      0.00000000
      5.04000000	     -4.90053214	     -4.95388784	     -6.01702729	      0.13106108	      1.15873416	     -0.27458050	      0.00000000	      0.50000000	      0.00000000	      0.25000000	     75.30201600	      0.69787365	      0.32162735	    113.11888874	      1.97429705	      2.25059200	     -8.93667938	      0.00000000	      0.00000000	     30.09576810	    -14.94388626	    -12.71877057	     31.24049688	      0.54524953	     -8.56443518	     12.20226499	      0.00000000	      0.00000000	    -66.46472848	      3.28186274	      3.57023458	     85.17845118	     -4.96190946	     34.14244161	     42.93569674	     43.18975281	      0.00000000	      0.00000000	     86.69457838	    -25.03842311	     51.93998413	     39.92151200	     47.39799021	      0.00000000	      0.00000000
